<svg width="558px" height="259px" viewBox="0 0 558 259" xmlns="http://www.w3.org/2000/svg" xmlns:xlink="http://www.w3.org/1999/xlink" style="display: block; letter-spacing: normal; word-spacing: normal; width: 558px; height: 259px;"><rect x="0" y="0" width="558" height="259" fill="white" transform="matrix(1, 0, 0, 1, 0, 0)"/><g clip-path="url(#mainClip885)"><g class="gojs-diagram" transform="matrix(1, 0, 0, 1, 43.544700622558594, 26.43518524169922)"><g transform="matrix(1, 0, 0, 1, -42.544700622558594, -25.43518524169922)" data-class-name="Group" data-key="Fred"><g transform="matrix(1, 0, 0, 1, 0, 0)"><path stroke="none" fill="url(#GRAD886)" d="M 0,0 L 84.08940124511719,0 L 84.08940124511719,24.43518524169922 L 0,24.43518524169922 z" transform="matrix(1, 0, 0, 1, 0.5, 0.5)"/><text x="0" y="10.826388931274415" style="font: 400 10pt Source Sans Pro, sans-serif" text-anchor="start" fill="black" transform="matrix(1, 0, 0, 1, 5.5, 5.5)">Fred: Patron</text></g><path stroke="gray" fill="none" stroke-width="1" stroke-linecap="butt" stroke-linejoin="miter" stroke-miterlimit="10" stroke-dasharray="3,3" stroke-dashoffset="0" d="M 0.5,0 L 0.5,230" transform="matrix(1, 0, 0, 1, 42.044700622558594, 25.93518524169922)" data-port-id=""/></g><g transform="matrix(1, 0, 0, 1, 59.92863464355469, -25.43518524169922)" data-class-name="Group" data-key="Bob"><g transform="matrix(1, 0, 0, 1, 0, 0)"><path stroke="none" fill="url(#GRAD887)" d="M 0,0 L 79.14273071289062,0 L 79.14273071289062,24.43518524169922 L 0,24.43518524169922 z" transform="matrix(1, 0, 0, 1, 0.5, 0.5)"/><text x="0" y="10.826388931274415" style="font: 400 10pt Source Sans Pro, sans-serif" text-anchor="start" fill="black" transform="matrix(1, 0, 0, 1, 5.5, 5.5)">Bob: Waiter</text></g><path stroke="gray" fill="none" stroke-width="1" stroke-linecap="butt" stroke-linejoin="miter" stroke-miterlimit="10" stroke-dasharray="3,3" stroke-dashoffset="0" d="M 0.5,0 L 0.5,230" transform="matrix(1, 0, 0, 1, 39.57136535644531, 25.93518524169922)" data-port-id=""/></g><g transform="matrix(1, 0, 0, 1, 159.6780242919922, -25.43518524169922)" data-class-name="Group" data-key="Hank"><g transform="matrix(1, 0, 0, 1, 0, 0)"><path stroke="none" fill="url(#GRAD888)" d="M 0,0 L 79.64395141601562,0 L 79.64395141601562,24.43518524169922 L 0,24.43518524169922 z" transform="matrix(1, 0, 0, 1, 0.5, 0.5)"/><text x="0" y="10.826388931274415" style="font: 400 10pt Source Sans Pro, sans-serif" text-anchor="start" fill="black" transform="matrix(1, 0, 0, 1, 5.5, 5.5)">Hank: Cook</text></g><path stroke="gray" fill="none" stroke-width="1" stroke-linecap="butt" stroke-linejoin="miter" stroke-miterlimit="10" stroke-dasharray="3,3" stroke-dashoffset="0" d="M 0.5,0 L 0.5,230" transform="matrix(1, 0, 0, 1, 39.82197570800781, 25.93518524169922)" data-port-id=""/></g><g transform="matrix(1, 0, 0, 1, 248.1900405883789, -25.43518524169922)" data-class-name="Group" data-key="Renee"><g transform="matrix(1, 0, 0, 1, 0, 0)"><path stroke="none" fill="url(#GRAD889)" d="M 0,0 L 102.61991882324219,0 L 102.61991882324219,24.43518524169922 L 0,24.43518524169922 z" transform="matrix(1, 0, 0, 1, 0.5, 0.5)"/><text x="0" y="10.826388931274415" style="font: 400 10pt Source Sans Pro, sans-serif" text-anchor="start" fill="black" transform="matrix(1, 0, 0, 1, 5.5, 5.5)">Renee: Cashier</text></g><path stroke="gray" fill="none" stroke-width="1" stroke-linecap="butt" stroke-linejoin="miter" stroke-miterlimit="10" stroke-dasharray="3,3" stroke-dashoffset="0" d="M 0.5,0 L 0.5,230" transform="matrix(1, 0, 0, 1, 51.309959411621094, 25.93518524169922)" data-port-id=""/></g><g transform="matrix(1, 0, 0, 1, 100, 35)" data-class-name="Node" data-key="-5"><path stroke="black" fill="white" stroke-width="1" stroke-linecap="butt" stroke-linejoin="miter" stroke-miterlimit="10" d="M 0,0 L 10,0 L 10,50 L 0,50 z" transform="matrix(1, 0, 0, 1, 0.5, 0.5)"/></g><g transform="matrix(1, 0, 0, 1, 200, 55)" data-class-name="Node" data-key="-6"><path stroke="black" fill="white" stroke-width="1" stroke-linecap="butt" stroke-linejoin="miter" stroke-miterlimit="10" d="M 0,0 L 10,0 L 10,70 L 0,70 z" transform="matrix(1, 0, 0, 1, 0.5, 0.5)"/></g><g transform="matrix(1, 0, 0, 1, 0, 75)" data-class-name="Node" data-key="-7"><path stroke="black" fill="white" stroke-width="1" stroke-linecap="butt" stroke-linejoin="miter" stroke-miterlimit="10" d="M 0,0 L 10,0 L 10,30 L 0,30 z" transform="matrix(1, 0, 0, 1, 0.5, 0.5)"/></g><g transform="matrix(1, 0, 0, 1, 100, 115)" data-class-name="Node" data-key="-8"><path stroke="black" fill="white" stroke-width="1" stroke-linecap="butt" stroke-linejoin="miter" stroke-miterlimit="10" d="M 0,0 L 10,0 L 10,30 L 0,30 z" transform="matrix(1, 0, 0, 1, 0.5, 0.5)"/></g><g transform="matrix(1, 0, 0, 1, 0, 135)" data-class-name="Node" data-key="-9"><path stroke="black" fill="white" stroke-width="1" stroke-linecap="butt" stroke-linejoin="miter" stroke-miterlimit="10" d="M 0,0 L 10,0 L 10,50 L 0,50 z" transform="matrix(1, 0, 0, 1, 0.5, 0.5)"/></g><g transform="matrix(1, 0, 0, 1, 300, 175)" data-class-name="Node" data-key="-10"><path stroke="black" fill="white" stroke-width="1" stroke-linecap="butt" stroke-linejoin="miter" stroke-miterlimit="10" d="M 0,0 L 10,0 L 10,30 L 0,30 z" transform="matrix(1, 0, 0, 1, 0.5, 0.5)"/></g><g transform="matrix(1, 0, 0, 1, -0.5, 24.005078124999997)" data-class-name="Link" data-key="-1" data-from-key="Fred" data-to-key="Bob"><path stroke="black" fill="none" stroke-width="1" stroke-linecap="butt" stroke-linejoin="miter" stroke-miterlimit="10" d="M 0,0 L 95,0" transform="matrix(1, 0, 0, 1, 0.5, 15.994921875000003)"/><path stroke="black" fill="none" stroke-width="1" stroke-linecap="butt" stroke-linejoin="miter" stroke-miterlimit="10" d="M 0,0 L 8,4 L 0,8" transform="matrix(1, 0, 0, 1, 87, 11.994921875000003)"/><text x="0" y="9.74619140625" style="font: 400 9pt Source Sans Pro, sans-serif" text-anchor="start" fill="black" transform="matrix(1, 0, 0, 1, 3.5, 0)">order</text></g><g transform="matrix(1, 0, 0, 1, 104.5, 44.005078125)" data-class-name="Link" data-key="-2" data-from-key="Bob" data-to-key="Hank"><path stroke="black" fill="none" stroke-width="1" stroke-linecap="butt" stroke-linejoin="miter" stroke-miterlimit="10" d="M 0,0 L 90,0" transform="matrix(1, 0, 0, 1, 0.5, 15.994921875000003)"/><path stroke="black" fill="none" stroke-width="1" stroke-linecap="butt" stroke-linejoin="miter" stroke-miterlimit="10" d="M 0,0 L 8,4 L 0,8" transform="matrix(1, 0, 0, 1, 82, 11.994921875000003)"/><text x="0" y="9.74619140625" style="font: 400 9pt Source Sans Pro, sans-serif" text-anchor="start" fill="black" transform="matrix(1, 0, 0, 1, 3.5, 0)">order food</text></g><g transform="matrix(1, 0, 0, 1, 4.5, 75.5)" data-class-name="Link" data-key="-3" data-from-key="Bob" data-to-key="Fred"><path stroke="black" fill="none" stroke-width="1" stroke-linecap="butt" stroke-linejoin="miter" stroke-miterlimit="10" d="M 90,0 L 0,0" transform="matrix(1, 0, 0, 1, 0.5, 4.5)"/><path stroke="black" fill="none" stroke-width="1" stroke-linecap="butt" stroke-linejoin="miter" stroke-miterlimit="10" d="M 0,0 L 8,4 L 0,8" transform="matrix(-1, 0, 0, -1, 9, 8.5)"/><text x="0" y="9.74619140625" style="font: 400 9pt Source Sans Pro, sans-serif" text-anchor="start" fill="black" transform="matrix(1, 0, 0, 1, 22.8125, 7.500000000000001)">serve drinks</text></g><g transform="matrix(1, 0, 0, 1, 104.5, 115.5)" data-class-name="Link" data-key="-4" data-from-key="Hank" data-to-key="Bob"><path stroke="black" fill="none" stroke-width="1" stroke-linecap="butt" stroke-linejoin="miter" stroke-miterlimit="10" d="M 90,0 L 0,0" transform="matrix(1, 0, 0, 1, 0.5, 4.5)"/><path stroke="black" fill="none" stroke-width="1" stroke-linecap="butt" stroke-linejoin="miter" stroke-miterlimit="10" d="M 0,0 L 8,4 L 0,8" transform="matrix(-1, 0, 0, -1, 9, 8.5)"/><text x="0" y="9.74619140625" style="font: 400 9pt Source Sans Pro, sans-serif" text-anchor="start" fill="black" transform="matrix(1, 0, 0, 1, 14.791015625, 7.500000000000001)">finish cooking</text></g><g transform="matrix(1, 0, 0, 1, 4.5, 135.5)" data-class-name="Link" data-key="-5" data-from-key="Bob" data-to-key="Fred"><path stroke="black" fill="none" stroke-width="1" stroke-linecap="butt" stroke-linejoin="miter" stroke-miterlimit="10" d="M 90,0 L 0,0" transform="matrix(1, 0, 0, 1, 0.5, 4.5)"/><path stroke="black" fill="none" stroke-width="1" stroke-linecap="butt" stroke-linejoin="miter" stroke-miterlimit="10" d="M 0,0 L 8,4 L 0,8" transform="matrix(-1, 0, 0, -1, 9, 8.5)"/><text x="0" y="9.74619140625" style="font: 400 9pt Source Sans Pro, sans-serif" text-anchor="start" fill="black" transform="matrix(1, 0, 0, 1, 31.466796875, 7.500000000000001)">serve food</text></g><g transform="matrix(1, 0, 0, 1, 4.5, 164.005078125)" data-class-name="Link" data-key="-6" data-from-key="Fred" data-to-key="Renee"><path stroke="black" fill="none" stroke-width="1" stroke-linecap="butt" stroke-linejoin="miter" stroke-miterlimit="10" d="M 0,0 L 290,0" transform="matrix(1, 0, 0, 1, 0.5, 15.994921875000003)"/><path stroke="black" fill="none" stroke-width="1" stroke-linecap="butt" stroke-linejoin="miter" stroke-miterlimit="10" d="M 0,0 L 8,4 L 0,8" transform="matrix(1, 0, 0, 1, 282, 11.994921875000003)"/><text x="0" y="9.74619140625" style="font: 400 9pt Source Sans Pro, sans-serif" text-anchor="start" fill="black" transform="matrix(1, 0, 0, 1, 3.5, 0)">pay</text></g><g transform="matrix(1, 0, 0, 1, 365.23326110839844, -25.43518524169922)" data-class-name="Group" data-key="newNode1701828734762"><g transform="matrix(1, 0, 0, 1, 0, 0)"><path stroke="none" fill="url(#GRAD890)" d="M 0,0 L 68.53347778320312,0 L 68.53347778320312,24.43518524169922 L 0,24.43518524169922 z" transform="matrix(1, 0, 0, 1, 0.5, 0.5)"/><text x="0" y="10.826388931274415" style="font: 400 10pt Source Sans Pro, sans-serif" text-anchor="start" fill="black" transform="matrix(1, 0, 0, 1, 5.5, 5.5)">NewNode</text></g><path stroke="gray" fill="none" stroke-width="1" stroke-linecap="butt" stroke-linejoin="miter" stroke-miterlimit="10" stroke-dasharray="3,3" stroke-dashoffset="0" d="M 0.5,0 L 0.5,230" transform="matrix(1, 0, 0, 1, 34.26673889160156, 25.93518524169922)" data-port-id=""/></g><g transform="matrix(1, 0, 0, 1, 300, 35)" data-class-name="Node" data-key="-12"><path stroke="black" fill="white" stroke-width="1" stroke-linecap="butt" stroke-linejoin="miter" stroke-miterlimit="10" d="M 0,0 L 10,0 L 10,30 L 0,30 z" transform="matrix(1, 0, 0, 1, 0.5, 0.5)"/></g><g transform="matrix(1, 0, 0, 1, 400, 105)" data-class-name="Node" data-key="-13"><path stroke="black" fill="white" stroke-width="1" stroke-linecap="butt" stroke-linejoin="miter" stroke-miterlimit="10" d="M 0,0 L 10,0 L 10,30 L 0,30 z" transform="matrix(1, 0, 0, 1, 0.5, 0.5)"/></g><g transform="matrix(1, 0, 0, 1, 476.89900970458984, -25.43518524169922)" data-class-name="Group" data-key="newNode1701828835522"><g transform="matrix(1, 0, 0, 1, 0, 0)"><path stroke="none" fill="url(#GRAD891)" d="M 0,0 L 35.20198059082031,0 L 35.20198059082031,24.43518524169922 L 0,24.43518524169922 z" transform="matrix(1, 0, 0, 1, 0.5, 0.5)"/><text x="0" y="10.826388931274415" style="font: 400 10pt Source Sans Pro, sans-serif" text-anchor="start" fill="black" transform="matrix(1, 0, 0, 1, 5.5, 5.5)">hola</text></g><path stroke="gray" fill="none" stroke-width="1" stroke-linecap="butt" stroke-linejoin="miter" stroke-miterlimit="10" stroke-dasharray="3,3" stroke-dashoffset="0" d="M 0.5,0 L 0.5,230" transform="matrix(1, 0, 0, 1, 17.600990295410156, 25.93518524169922)" data-port-id=""/></g><g transform="matrix(1, 0, 0, 1, 199.5, 24.005078124999997)" data-class-name="Link" data-key="-7" data-from-key="Hank" data-to-key="Renee"><path stroke="black" fill="none" stroke-width="1" stroke-linecap="butt" stroke-linejoin="miter" stroke-miterlimit="10" d="M 0,0 L 95,0" transform="matrix(1, 0, 0, 1, 0.5, 15.994921875000003)"/><path stroke="black" fill="none" stroke-width="1" stroke-linecap="butt" stroke-linejoin="miter" stroke-miterlimit="10" d="M 0,0 L 8,4 L 0,8" transform="matrix(1, 0, 0, 1, 87, 11.994921875000003)"/><text x="0" y="9.74619140625" style="font: 400 9pt Source Sans Pro, sans-serif" text-anchor="start" fill="black" transform="matrix(1, 0, 0, 1, 3.5, 0)">hola</text></g><g transform="matrix(1, 0, 0, 1, 299.5, 84.005078125)" data-class-name="Link" data-key="-8" data-from-key="Renee" data-to-key="newNode1701828734762"><path stroke="black" fill="none" stroke-width="1" stroke-linecap="butt" stroke-linejoin="miter" stroke-miterlimit="10" d="M 0,0 L 100,0" transform="matrix(1, 0, 0, 1, 0.5, 15.994921875000003)"/><path stroke="black" fill="none" stroke-width="1" stroke-linecap="butt" stroke-linejoin="miter" stroke-miterlimit="10" d="M 0,0 L 8,4 L 0,8" transform="matrix(1, 0, 0, 1, 92, 11.994921875000003)"/><text x="0" y="9.74619140625" style="font: 400 9pt Source Sans Pro, sans-serif" text-anchor="start" fill="black" transform="matrix(1, 0, 0, 1, 3.5, 0)">hola</text></g></g><g transform="matrix(1, 0, 0, 1, 43.544700622558594, 26.43518524169922)"/></g><clipPath id="mainClip885"><rect x="0" y="0" width="558px" height="259px"/></clipPath><linearGradient x1="42.044700622558594" x2="42.044700622558594" y1="0" y2="24.43518524169922" id="GRAD886" gradientUnits="userSpaceOnUse"><stop offset="0" stop-color="#bbdefb"/><stop offset="1" stop-color="rgb(159,194,222)" stop-opacity="1"/></linearGradient><linearGradient x1="39.57136535644531" x2="39.57136535644531" y1="0" y2="24.43518524169922" id="GRAD887" gradientUnits="userSpaceOnUse"><stop offset="0" stop-color="#bbdefb"/><stop offset="1" stop-color="rgb(159,194,222)" stop-opacity="1"/></linearGradient><linearGradient x1="39.82197570800781" x2="39.82197570800781" y1="0" y2="24.43518524169922" id="GRAD888" gradientUnits="userSpaceOnUse"><stop offset="0" stop-color="#bbdefb"/><stop offset="1" stop-color="rgb(159,194,222)" stop-opacity="1"/></linearGradient><linearGradient x1="51.309959411621094" x2="51.309959411621094" y1="0" y2="24.43518524169922" id="GRAD889" gradientUnits="userSpaceOnUse"><stop offset="0" stop-color="#bbdefb"/><stop offset="1" stop-color="rgb(159,194,222)" stop-opacity="1"/></linearGradient><linearGradient x1="34.26673889160156" x2="34.26673889160156" y1="0" y2="24.43518524169922" id="GRAD890" gradientUnits="userSpaceOnUse"><stop offset="0" stop-color="#bbdefb"/><stop offset="1" stop-color="rgb(159,194,222)" stop-opacity="1"/></linearGradient><linearGradient x1="17.600990295410156" x2="17.600990295410156" y1="0" y2="24.43518524169922" id="GRAD891" gradientUnits="userSpaceOnUse"><stop offset="0" stop-color="#bbdefb"/><stop offset="1" stop-color="rgb(159,194,222)" stop-opacity="1"/></linearGradient></svg>