<svg width="689px" height="279px" viewBox="0 0 689 279" xmlns="http://www.w3.org/2000/svg" xmlns:xlink="http://www.w3.org/1999/xlink" style="display: block; letter-spacing: normal; word-spacing: normal; width: 689px; height: 279px;"><rect x="0" y="0" width="689" height="279" fill="white" transform="matrix(1, 0, 0, 1, 0, 0)"/><g clip-path="url(#mainClip1724)"><g class="gojs-diagram" transform="matrix(1, 0, 0, 1, 43.544700622558594, 26.43518524169922)"><g transform="matrix(1, 0, 0, 1, -42.544700622558594, -25.43518524169922)" data-class-name="Group" data-key="Fred"><g transform="matrix(1, 0, 0, 1, 0, 0)"><path stroke="none" fill="url(#GRAD1725)" d="M 0,0 L 84.08940124511719,0 L 84.08940124511719,24.43518524169922 L 0,24.43518524169922 z" transform="matrix(1, 0, 0, 1, 0.5, 0.5)"/><text x="0" y="10.826388931274415" style="font: 400 10pt Source Sans Pro, sans-serif" text-anchor="start" fill="black" transform="matrix(1, 0, 0, 1, 5.5, 5.5)">Fred: Patron</text></g><path stroke="gray" fill="none" stroke-width="1" stroke-linecap="butt" stroke-linejoin="miter" stroke-miterlimit="10" stroke-dasharray="3,3" stroke-dashoffset="0" d="M 0.5,0 L 0.5,250" transform="matrix(1, 0, 0, 1, 42.044700622558594, 25.93518524169922)" data-port-id=""/></g><g transform="matrix(1, 0, 0, 1, 59.92863464355469, -25.43518524169922)" data-class-name="Group" data-key="Bob"><g transform="matrix(1, 0, 0, 1, 0, 0)"><path stroke="none" fill="url(#GRAD1726)" d="M 0,0 L 79.14273071289062,0 L 79.14273071289062,24.43518524169922 L 0,24.43518524169922 z" transform="matrix(1, 0, 0, 1, 0.5, 0.5)"/><text x="0" y="10.826388931274415" style="font: 400 10pt Source Sans Pro, sans-serif" text-anchor="start" fill="black" transform="matrix(1, 0, 0, 1, 5.5, 5.5)">Bob: Waiter</text></g><path stroke="gray" fill="none" stroke-width="1" stroke-linecap="butt" stroke-linejoin="miter" stroke-miterlimit="10" stroke-dasharray="3,3" stroke-dashoffset="0" d="M 0.5,0 L 0.5,250" transform="matrix(1, 0, 0, 1, 39.57136535644531, 25.93518524169922)" data-port-id=""/></g><g transform="matrix(1, 0, 0, 1, 159.6780242919922, -25.43518524169922)" data-class-name="Group" data-key="Hank"><g transform="matrix(1, 0, 0, 1, 0, 0)"><path stroke="none" fill="url(#GRAD1727)" d="M 0,0 L 79.64395141601562,0 L 79.64395141601562,24.43518524169922 L 0,24.43518524169922 z" transform="matrix(1, 0, 0, 1, 0.5, 0.5)"/><text x="0" y="10.826388931274415" style="font: 400 10pt Source Sans Pro, sans-serif" text-anchor="start" fill="black" transform="matrix(1, 0, 0, 1, 5.5, 5.5)">Hank: Cook</text></g><path stroke="gray" fill="none" stroke-width="1" stroke-linecap="butt" stroke-linejoin="miter" stroke-miterlimit="10" stroke-dasharray="3,3" stroke-dashoffset="0" d="M 0.5,0 L 0.5,250" transform="matrix(1, 0, 0, 1, 39.82197570800781, 25.93518524169922)" data-port-id=""/></g><g transform="matrix(1, 0, 0, 1, 248.1900405883789, -25.43518524169922)" data-class-name="Group" data-key="Renee"><g transform="matrix(1, 0, 0, 1, 0, 0)"><path stroke="none" fill="url(#GRAD1728)" d="M 0,0 L 102.61991882324219,0 L 102.61991882324219,24.43518524169922 L 0,24.43518524169922 z" transform="matrix(1, 0, 0, 1, 0.5, 0.5)"/><text x="0" y="10.826388931274415" style="font: 400 10pt Source Sans Pro, sans-serif" text-anchor="start" fill="black" transform="matrix(1, 0, 0, 1, 5.5, 5.5)">Renee: Cashier</text></g><path stroke="gray" fill="none" stroke-width="1" stroke-linecap="butt" stroke-linejoin="miter" stroke-miterlimit="10" stroke-dasharray="3,3" stroke-dashoffset="0" d="M 0.5,0 L 0.5,250" transform="matrix(1, 0, 0, 1, 51.309959411621094, 25.93518524169922)" data-port-id=""/></g><g transform="matrix(1, 0, 0, 1, 100, 35)" data-class-name="Node" data-key="-5"><path stroke="black" fill="white" stroke-width="1" stroke-linecap="butt" stroke-linejoin="miter" stroke-miterlimit="10" d="M 0,0 L 10,0 L 10,50 L 0,50 z" transform="matrix(1, 0, 0, 1, 0.5, 0.5)"/></g><g transform="matrix(1, 0, 0, 1, 200, 55)" data-class-name="Node" data-key="-6"><path stroke="black" fill="white" stroke-width="1" stroke-linecap="butt" stroke-linejoin="miter" stroke-miterlimit="10" d="M 0,0 L 10,0 L 10,70 L 0,70 z" transform="matrix(1, 0, 0, 1, 0.5, 0.5)"/></g><g transform="matrix(1, 0, 0, 1, 0, 75)" data-class-name="Node" data-key="-7"><path stroke="black" fill="white" stroke-width="1" stroke-linecap="butt" stroke-linejoin="miter" stroke-miterlimit="10" d="M 0,0 L 10,0 L 10,30 L 0,30 z" transform="matrix(1, 0, 0, 1, 0.5, 0.5)"/></g><g transform="matrix(1, 0, 0, 1, 100, 115)" data-class-name="Node" data-key="-8"><path stroke="black" fill="white" stroke-width="1" stroke-linecap="butt" stroke-linejoin="miter" stroke-miterlimit="10" d="M 0,0 L 10,0 L 10,30 L 0,30 z" transform="matrix(1, 0, 0, 1, 0.5, 0.5)"/></g><g transform="matrix(1, 0, 0, 1, 0, 135)" data-class-name="Node" data-key="-9"><path stroke="black" fill="white" stroke-width="1" stroke-linecap="butt" stroke-linejoin="miter" stroke-miterlimit="10" d="M 0,0 L 10,0 L 10,50 L 0,50 z" transform="matrix(1, 0, 0, 1, 0.5, 0.5)"/></g><g transform="matrix(1, 0, 0, 1, 300, 175)" data-class-name="Node" data-key="-10"><path stroke="black" fill="white" stroke-width="1" stroke-linecap="butt" stroke-linejoin="miter" stroke-miterlimit="10" d="M 0,0 L 10,0 L 10,30 L 0,30 z" transform="matrix(1, 0, 0, 1, 0.5, 0.5)"/></g><g transform="matrix(1, 0, 0, 1, -0.5, 24.005078124999997)" data-class-name="Link" data-key="-1" data-from-key="Fred" data-to-key="Bob"><path stroke="black" fill="none" stroke-width="1" stroke-linecap="butt" stroke-linejoin="miter" stroke-miterlimit="10" d="M 0,0 L 95,0" transform="matrix(1, 0, 0, 1, 0.5, 15.994921875000003)"/><path stroke="black" fill="none" stroke-width="1" stroke-linecap="butt" stroke-linejoin="miter" stroke-miterlimit="10" d="M 0,0 L 8,4 L 0,8" transform="matrix(1, 0, 0, 1, 87, 11.994921875000003)"/><text x="0" y="9.74619140625" style="font: 400 9pt Source Sans Pro, sans-serif" text-anchor="start" fill="black" transform="matrix(1, 0, 0, 1, 3.5, 0)">order</text></g><g transform="matrix(1, 0, 0, 1, 104.5, 44.005078125)" data-class-name="Link" data-key="-2" data-from-key="Bob" data-to-key="Hank"><path stroke="black" fill="none" stroke-width="1" stroke-linecap="butt" stroke-linejoin="miter" stroke-miterlimit="10" d="M 0,0 L 90,0" transform="matrix(1, 0, 0, 1, 0.5, 15.994921875000003)"/><path stroke="black" fill="none" stroke-width="1" stroke-linecap="butt" stroke-linejoin="miter" stroke-miterlimit="10" d="M 0,0 L 8,4 L 0,8" transform="matrix(1, 0, 0, 1, 82, 11.994921875000003)"/><text x="0" y="9.74619140625" style="font: 400 9pt Source Sans Pro, sans-serif" text-anchor="start" fill="black" transform="matrix(1, 0, 0, 1, 3.5, 0)">order food</text></g><g transform="matrix(1, 0, 0, 1, 4.5, 75.5)" data-class-name="Link" data-key="-3" data-from-key="Bob" data-to-key="Fred"><path stroke="black" fill="none" stroke-width="1" stroke-linecap="butt" stroke-linejoin="miter" stroke-miterlimit="10" d="M 90,0 L 0,0" transform="matrix(1, 0, 0, 1, 0.5, 4.5)"/><path stroke="black" fill="none" stroke-width="1" stroke-linecap="butt" stroke-linejoin="miter" stroke-miterlimit="10" d="M 0,0 L 8,4 L 0,8" transform="matrix(-1, 0, 0, -1, 9, 8.5)"/><text x="0" y="9.74619140625" style="font: 400 9pt Source Sans Pro, sans-serif" text-anchor="start" fill="black" transform="matrix(1, 0, 0, 1, 22.8125, 7.500000000000001)">serve drinks</text></g><g transform="matrix(1, 0, 0, 1, 104.5, 115.5)" data-class-name="Link" data-key="-4" data-from-key="Hank" data-to-key="Bob"><path stroke="black" fill="none" stroke-width="1" stroke-linecap="butt" stroke-linejoin="miter" stroke-miterlimit="10" d="M 90,0 L 0,0" transform="matrix(1, 0, 0, 1, 0.5, 4.5)"/><path stroke="black" fill="none" stroke-width="1" stroke-linecap="butt" stroke-linejoin="miter" stroke-miterlimit="10" d="M 0,0 L 8,4 L 0,8" transform="matrix(-1, 0, 0, -1, 9, 8.5)"/><text x="0" y="9.74619140625" style="font: 400 9pt Source Sans Pro, sans-serif" text-anchor="start" fill="black" transform="matrix(1, 0, 0, 1, 14.791015625, 7.500000000000001)">finish cooking</text></g><g transform="matrix(1, 0, 0, 1, 4.5, 135.5)" data-class-name="Link" data-key="-5" data-from-key="Bob" data-to-key="Fred"><path stroke="black" fill="none" stroke-width="1" stroke-linecap="butt" stroke-linejoin="miter" stroke-miterlimit="10" d="M 90,0 L 0,0" transform="matrix(1, 0, 0, 1, 0.5, 4.5)"/><path stroke="black" fill="none" stroke-width="1" stroke-linecap="butt" stroke-linejoin="miter" stroke-miterlimit="10" d="M 0,0 L 8,4 L 0,8" transform="matrix(-1, 0, 0, -1, 9, 8.5)"/><text x="0" y="9.74619140625" style="font: 400 9pt Source Sans Pro, sans-serif" text-anchor="start" fill="black" transform="matrix(1, 0, 0, 1, 31.466796875, 7.500000000000001)">serve food</text></g><g transform="matrix(1, 0, 0, 1, 4.5, 164.005078125)" data-class-name="Link" data-key="-6" data-from-key="Fred" data-to-key="Renee"><path stroke="black" fill="none" stroke-width="1" stroke-linecap="butt" stroke-linejoin="miter" stroke-miterlimit="10" d="M 0,0 L 290,0" transform="matrix(1, 0, 0, 1, 0.5, 15.994921875000003)"/><path stroke="black" fill="none" stroke-width="1" stroke-linecap="butt" stroke-linejoin="miter" stroke-miterlimit="10" d="M 0,0 L 8,4 L 0,8" transform="matrix(1, 0, 0, 1, 282, 11.994921875000003)"/><text x="0" y="9.74619140625" style="font: 400 9pt Source Sans Pro, sans-serif" text-anchor="start" fill="black" transform="matrix(1, 0, 0, 1, 3.5, 0)">pay</text></g><g transform="matrix(1, 0, 0, 1, 300, 35)" data-class-name="Node" data-key="-11"><path stroke="black" fill="white" stroke-width="1" stroke-linecap="butt" stroke-linejoin="miter" stroke-miterlimit="10" d="M 0,0 L 10,0 L 10,30 L 0,30 z" transform="matrix(1, 0, 0, 1, 0.5, 0.5)"/></g><g transform="matrix(1, 0, 0, 1, 300, 155)" data-class-name="Node" data-key="-12"><path stroke="black" fill="white" stroke-width="1" stroke-linecap="butt" stroke-linejoin="miter" stroke-miterlimit="10" d="M 0,0 L 10,0 L 10,30 L 0,30 z" transform="matrix(1, 0, 0, 1, 0.5, 0.5)"/></g><g transform="matrix(1, 0, 0, 1, 200, 115)" data-class-name="Node" data-key="-13"><path stroke="black" fill="white" stroke-width="1" stroke-linecap="butt" stroke-linejoin="miter" stroke-miterlimit="10" d="M 0,0 L 10,0 L 10,30 L 0,30 z" transform="matrix(1, 0, 0, 1, 0.5, 0.5)"/></g><g transform="matrix(1, 0, 0, 1, 363.3815155029297, -25.43518524169922)" data-class-name="Group" data-key="newNode1697396470691"><g transform="matrix(1, 0, 0, 1, 0, 0)"><path stroke="none" fill="url(#GRAD1729)" d="M 0,0 L 72.23696899414062,0 L 72.23696899414062,24.43518524169922 L 0,24.43518524169922 z" transform="matrix(1, 0, 0, 1, 0.5, 0.5)"/><text x="0" y="10.826388931274415" style="font: 400 10pt Source Sans Pro, sans-serif" text-anchor="start" fill="black" transform="matrix(1, 0, 0, 1, 5.5, 5.5)">New Node</text></g><path stroke="gray" fill="none" stroke-width="1" stroke-linecap="butt" stroke-linejoin="miter" stroke-miterlimit="10" stroke-dasharray="3,3" stroke-dashoffset="0" d="M 0.5,0 L 0.5,250" transform="matrix(1, 0, 0, 1, 36.11848449707031, 25.93518524169922)" data-port-id=""/></g><g transform="matrix(1, 0, 0, 1, 400, 95)" data-class-name="Node" data-key="-15"><path stroke="black" fill="white" stroke-width="1" stroke-linecap="butt" stroke-linejoin="miter" stroke-miterlimit="10" d="M 0,0 L 10,0 L 10,30 L 0,30 z" transform="matrix(1, 0, 0, 1, 0.5, 0.5)"/></g><g transform="matrix(1, 0, 0, 1, 300, 35)" data-class-name="Node" data-key="-16"><path stroke="black" fill="white" stroke-width="1" stroke-linecap="butt" stroke-linejoin="miter" stroke-miterlimit="10" d="M 0,0 L 10,0 L 10,30 L 0,30 z" transform="matrix(1, 0, 0, 1, 0.5, 0.5)"/></g><g transform="matrix(1, 0, 0, 1, 473.3815155029297, -25.43518524169922)" data-class-name="Group" data-key="newNode1697396927611"><g transform="matrix(1, 0, 0, 1, 0, 0)"><path stroke="none" fill="url(#GRAD1730)" d="M 0,0 L 72.23696899414062,0 L 72.23696899414062,24.43518524169922 L 0,24.43518524169922 z" transform="matrix(1, 0, 0, 1, 0.5, 0.5)"/><text x="0" y="10.826388931274415" style="font: 400 10pt Source Sans Pro, sans-serif" text-anchor="start" fill="black" transform="matrix(1, 0, 0, 1, 5.5, 5.5)">New Node</text></g><path stroke="gray" fill="none" stroke-width="1" stroke-linecap="butt" stroke-linejoin="miter" stroke-miterlimit="10" stroke-dasharray="3,3" stroke-dashoffset="0" d="M 0.5,0 L 0.5,250" transform="matrix(1, 0, 0, 1, 36.11848449707031, 25.93518524169922)" data-port-id=""/></g><g transform="matrix(1, 0, 0, 1, 400, 95)" data-class-name="Node" data-key="-18"><path stroke="black" fill="white" stroke-width="1" stroke-linecap="butt" stroke-linejoin="miter" stroke-miterlimit="10" d="M 0,0 L 10,0 L 10,30 L 0,30 z" transform="matrix(1, 0, 0, 1, 0.5, 0.5)"/></g><g transform="matrix(1, 0, 0, 1, 300, 195)" data-class-name="Node" data-key="-19"><path stroke="black" fill="white" stroke-width="1" stroke-linecap="butt" stroke-linejoin="miter" stroke-miterlimit="10" d="M 0,0 L 10,0 L 10,30 L 0,30 z" transform="matrix(1, 0, 0, 1, 0.5, 0.5)"/></g><g transform="matrix(1, 0, 0, 1, 510, 195)" data-class-name="Node" data-key="-20"><path stroke="black" fill="white" stroke-width="1" stroke-linecap="butt" stroke-linejoin="miter" stroke-miterlimit="10" d="M 0,0 L 10,0 L 10,30 L 0,30 z" transform="matrix(1, 0, 0, 1, 0.5, 0.5)"/></g><g transform="matrix(1, 0, 0, 1, 510, 160)" data-class-name="Node" data-key="-21"><path stroke="black" fill="white" stroke-width="1" stroke-linecap="butt" stroke-linejoin="miter" stroke-miterlimit="10" d="M 0,0 L 10,0 L 10,30 L 0,30 z" transform="matrix(1, 0, 0, 1, 0.5, 0.5)"/></g><g transform="matrix(1, 0, 0, 1, 199.5, 24.005078124999997)" data-class-name="Link" data-key="-7" data-from-key="Hank" data-to-key="Renee"><path stroke="black" fill="none" stroke-width="1" stroke-linecap="butt" stroke-linejoin="miter" stroke-miterlimit="10" d="M 0,0 L 95,0" transform="matrix(1, 0, 0, 1, 0.5, 15.994921875000003)"/><path stroke="black" fill="none" stroke-width="1" stroke-linecap="butt" stroke-linejoin="miter" stroke-miterlimit="10" d="M 0,0 L 8,4 L 0,8" transform="matrix(1, 0, 0, 1, 87, 11.994921875000003)"/><text x="0" y="9.74619140625" style="font: 400 9pt Source Sans Pro, sans-serif" text-anchor="start" fill="black" transform="matrix(1, 0, 0, 1, 3.5, 0)">mensaje</text></g><g transform="matrix(1, 0, 0, 1, 199.5, 144.005078125)" data-class-name="Link" data-key="-8" data-from-key="Hank" data-to-key="Renee"><path stroke="black" fill="none" stroke-width="1" stroke-linecap="butt" stroke-linejoin="miter" stroke-miterlimit="10" d="M 0,0 L 95,0" transform="matrix(1, 0, 0, 1, 0.5, 15.994921875000003)"/><path stroke="black" fill="none" stroke-width="1" stroke-linecap="butt" stroke-linejoin="miter" stroke-miterlimit="10" d="M 0,0 L 8,4 L 0,8" transform="matrix(1, 0, 0, 1, 87, 11.994921875000003)"/><text x="0" y="9.74619140625" style="font: 400 9pt Source Sans Pro, sans-serif" text-anchor="start" fill="black" transform="matrix(1, 0, 0, 1, 3.5, 0)">mensaje</text></g><g transform="matrix(1, 0, 0, 1, 204.5, 115.5)" data-class-name="Link" data-key="-9" data-from-key="Renee" data-to-key="Hank"><path stroke="black" fill="none" stroke-width="1" stroke-linecap="butt" stroke-linejoin="miter" stroke-miterlimit="10" d="M 95,0 L 0,0" transform="matrix(1, 0, 0, 1, 0.5, 4.5)"/><path stroke="black" fill="none" stroke-width="1" stroke-linecap="butt" stroke-linejoin="miter" stroke-miterlimit="10" d="M 0,0 L 8,4 L 0,8" transform="matrix(-1, 0, 0, -1, 9, 8.5)"/><text x="0" y="9.74619140625" style="font: 400 9pt Source Sans Pro, sans-serif" text-anchor="start" fill="black" transform="matrix(1, 0, 0, 1, 47.142578125, 7.500000000000001)">mensaje</text></g><g transform="matrix(1, 0, 0, 1, 299.5, 84.005078125)" data-class-name="Link" data-key="-10" data-from-key="Renee" data-to-key="newNode1697396470691"><path stroke="black" fill="none" stroke-width="1" stroke-linecap="butt" stroke-linejoin="miter" stroke-miterlimit="10" d="M 0,0 L 95,0" transform="matrix(1, 0, 0, 1, 0.5, 15.994921875000003)"/><path stroke="black" fill="none" stroke-width="1" stroke-linecap="butt" stroke-linejoin="miter" stroke-miterlimit="10" d="M 0,0 L 8,4 L 0,8" transform="matrix(1, 0, 0, 1, 87, 11.994921875000003)"/><text x="0" y="9.74619140625" style="font: 400 9pt Source Sans Pro, sans-serif" text-anchor="start" fill="black" transform="matrix(1, 0, 0, 1, 3.5, 0)">mensaje</text></g><g transform="matrix(1, 0, 0, 1, 299.5, 15.5)" data-class-name="Link" data-key="-11" data-from-key="newNode1697396470691" data-to-key="Renee"><path stroke="black" fill="none" stroke-width="1" stroke-linecap="butt" stroke-linejoin="miter" stroke-miterlimit="10" d="M 100,0 L 0,0" transform="matrix(1, 0, 0, 1, 0.5, 4.5)"/><path stroke="black" fill="none" stroke-width="1" stroke-linecap="butt" stroke-linejoin="miter" stroke-miterlimit="10" d="M 0,0 L 8,4 L 0,8" transform="matrix(-1, 0, 0, -1, 9, 8.5)"/><text x="0" y="9.74619140625" style="font: 400 9pt Source Sans Pro, sans-serif" text-anchor="start" fill="black" transform="matrix(1, 0, 0, 1, 52.142578125, 7.500000000000001)">mensaje</text></g><g transform="matrix(1, 0, 0, 1, 399.5, 80.5)" data-class-name="Link" data-key="-12" data-from-key="newNode1697396927611" data-to-key="newNode1697396470691"><path stroke="black" fill="none" stroke-width="1" stroke-linecap="butt" stroke-linejoin="miter" stroke-miterlimit="10" d="M 110,0 L 0,0" transform="matrix(1, 0, 0, 1, 0.5, 4.5)"/><path stroke="black" fill="none" stroke-width="1" stroke-linecap="butt" stroke-linejoin="miter" stroke-miterlimit="10" d="M 0,0 L 8,4 L 0,8" transform="matrix(-1, 0, 0, -1, 9, 8.5)"/><text x="0" y="9.74619140625" style="font: 400 9pt Source Sans Pro, sans-serif" text-anchor="start" fill="black" transform="matrix(1, 0, 0, 1, 62.142578125, 7.500000000000001)">mensaje</text></g><g transform="matrix(1, 0, 0, 1, 199.5, 184.005078125)" data-class-name="Link" data-key="-13" data-from-key="Hank" data-to-key="Renee"><path stroke="black" fill="none" stroke-width="1" stroke-linecap="butt" stroke-linejoin="miter" stroke-miterlimit="10" d="M 0,0 L 95,0" transform="matrix(1, 0, 0, 1, 0.5, 15.994921875000003)"/><path stroke="black" fill="none" stroke-width="1" stroke-linecap="butt" stroke-linejoin="miter" stroke-miterlimit="10" d="M 0,0 L 8,4 L 0,8" transform="matrix(1, 0, 0, 1, 87, 11.994921875000003)"/><text x="0" y="9.74619140625" style="font: 400 9pt Source Sans Pro, sans-serif" text-anchor="start" fill="black" transform="matrix(1, 0, 0, 1, 3.5, 0)">mensaje</text></g><g transform="matrix(1, 0, 0, 1, 399.5, 184.005078125)" data-class-name="Link" data-key="-14" data-from-key="newNode1697396470691" data-to-key="newNode1697396927611"><path stroke="black" fill="none" stroke-width="1" stroke-linecap="butt" stroke-linejoin="miter" stroke-miterlimit="10" d="M 0,0 L 105,0" transform="matrix(1, 0, 0, 1, 0.5, 15.994921875000003)"/><path stroke="black" fill="none" stroke-width="1" stroke-linecap="butt" stroke-linejoin="miter" stroke-miterlimit="10" d="M 0,0 L 8,4 L 0,8" transform="matrix(1, 0, 0, 1, 97, 11.994921875000003)"/><text x="0" y="9.74619140625" style="font: 400 9pt Source Sans Pro, sans-serif" text-anchor="start" fill="black" transform="matrix(1, 0, 0, 1, 3.5, 0)">mensaje</text></g><g transform="matrix(1, 0, 0, 1, 399.5, 164.005078125)" data-class-name="Link" data-key="-15" data-from-key="newNode1697396470691" data-to-key="newNode1697396927611"><path stroke="black" fill="none" stroke-width="1" stroke-linecap="butt" stroke-linejoin="miter" stroke-miterlimit="10" d="M 0,0 L 105,0" transform="matrix(1, 0, 0, 1, 0.5, 15.994921875000003)"/><path stroke="black" fill="none" stroke-width="1" stroke-linecap="butt" stroke-linejoin="miter" stroke-miterlimit="10" d="M 0,0 L 8,4 L 0,8" transform="matrix(1, 0, 0, 1, 97, 11.994921875000003)"/><text x="0" y="9.74619140625" style="font: 400 9pt Source Sans Pro, sans-serif" text-anchor="start" fill="black" transform="matrix(1, 0, 0, 1, 3.5, 0)">mensaje</text></g><g transform="matrix(1, 0, 0, 1, 404.5, 55.5)" data-class-name="Link" data-key="-16" data-from-key="newNode1697396927611" data-to-key="newNode1697396470691"><path stroke="black" fill="none" stroke-width="1" stroke-linecap="butt" stroke-linejoin="miter" stroke-miterlimit="10" d="M 105,0 L 0,0" transform="matrix(1, 0, 0, 1, 0.5, 4.5)"/><path stroke="black" fill="none" stroke-width="1" stroke-linecap="butt" stroke-linejoin="miter" stroke-miterlimit="10" d="M 0,0 L 8,4 L 0,8" transform="matrix(-1, 0, 0, -1, 9, 8.5)"/><text x="0" y="9.74619140625" style="font: 400 9pt Source Sans Pro, sans-serif" text-anchor="start" fill="black" transform="matrix(1, 0, 0, 1, 57.142578125, 7.500000000000001)">mensaje</text></g><g transform="matrix(1, 0, 0, 1, 400, 55)" data-class-name="Node" data-key="-22"><path stroke="black" fill="white" stroke-width="1" stroke-linecap="butt" stroke-linejoin="miter" stroke-miterlimit="10" d="M 0,0 L 10,0 L 10,30 L 0,30 z" transform="matrix(1, 0, 0, 1, 0.5, 0.5)"/></g><g transform="matrix(1, 0, 0, 1, 365.23326110839844, -25.43518524169922)" data-class-name="Group" data-key="newNode1697403271081"><g transform="matrix(1, 0, 0, 1, 0, 0)"><path stroke="none" fill="url(#GRAD1731)" d="M 0,0 L 68.53347778320312,0 L 68.53347778320312,24.43518524169922 L 0,24.43518524169922 z" transform="matrix(1, 0, 0, 1, 0.5, 0.5)"/><text x="0" y="10.826388931274415" style="font: 400 10pt Source Sans Pro, sans-serif" text-anchor="start" fill="black" transform="matrix(1, 0, 0, 1, 5.5, 5.5)">NewNode</text></g><path stroke="gray" fill="none" stroke-width="1" stroke-linecap="butt" stroke-linejoin="miter" stroke-miterlimit="10" stroke-dasharray="3,3" stroke-dashoffset="0" d="M 0.5,0 L 0.5,250" transform="matrix(1, 0, 0, 1, 34.26673889160156, 25.93518524169922)" data-port-id=""/></g><g transform="matrix(1, 0, 0, 1, 574.2332611083984, -25.43518524169922)" data-class-name="Group" data-key="newNode1697403274922"><g transform="matrix(1, 0, 0, 1, 0, 0)"><path stroke="none" fill="url(#GRAD1732)" d="M 0,0 L 68.53347778320312,0 L 68.53347778320312,24.43518524169922 L 0,24.43518524169922 z" transform="matrix(1, 0, 0, 1, 0.5, 0.5)"/><text x="0" y="10.826388931274415" style="font: 400 10pt Source Sans Pro, sans-serif" text-anchor="start" fill="black" transform="matrix(1, 0, 0, 1, 5.5, 5.5)">NewNode</text></g><path stroke="gray" fill="none" stroke-width="1" stroke-linecap="butt" stroke-linejoin="miter" stroke-miterlimit="10" stroke-dasharray="3,3" stroke-dashoffset="0" d="M 0.5,0 L 0.5,250" transform="matrix(1, 0, 0, 1, 34.26673889160156, 25.93518524169922)" data-port-id=""/></g></g><g transform="matrix(1, 0, 0, 1, 43.544700622558594, 26.43518524169922)"/></g><clipPath id="mainClip1724"><rect x="0" y="0" width="689px" height="279px"/></clipPath><linearGradient x1="42.044700622558594" x2="42.044700622558594" y1="0" y2="24.43518524169922" id="GRAD1725" gradientUnits="userSpaceOnUse"><stop offset="0" stop-color="#bbdefb"/><stop offset="1" stop-color="rgb(159,194,222)" stop-opacity="1"/></linearGradient><linearGradient x1="39.57136535644531" x2="39.57136535644531" y1="0" y2="24.43518524169922" id="GRAD1726" gradientUnits="userSpaceOnUse"><stop offset="0" stop-color="#bbdefb"/><stop offset="1" stop-color="rgb(159,194,222)" stop-opacity="1"/></linearGradient><linearGradient x1="39.82197570800781" x2="39.82197570800781" y1="0" y2="24.43518524169922" id="GRAD1727" gradientUnits="userSpaceOnUse"><stop offset="0" stop-color="#bbdefb"/><stop offset="1" stop-color="rgb(159,194,222)" stop-opacity="1"/></linearGradient><linearGradient x1="51.309959411621094" x2="51.309959411621094" y1="0" y2="24.43518524169922" id="GRAD1728" gradientUnits="userSpaceOnUse"><stop offset="0" stop-color="#bbdefb"/><stop offset="1" stop-color="rgb(159,194,222)" stop-opacity="1"/></linearGradient><linearGradient x1="36.11848449707031" x2="36.11848449707031" y1="0" y2="24.43518524169922" id="GRAD1729" gradientUnits="userSpaceOnUse"><stop offset="0" stop-color="#bbdefb"/><stop offset="1" stop-color="rgb(159,194,222)" stop-opacity="1"/></linearGradient><linearGradient x1="36.11848449707031" x2="36.11848449707031" y1="0" y2="24.43518524169922" id="GRAD1730" gradientUnits="userSpaceOnUse"><stop offset="0" stop-color="#bbdefb"/><stop offset="1" stop-color="rgb(159,194,222)" stop-opacity="1"/></linearGradient><linearGradient x1="34.26673889160156" x2="34.26673889160156" y1="0" y2="24.43518524169922" id="GRAD1731" gradientUnits="userSpaceOnUse"><stop offset="0" stop-color="#bbdefb"/><stop offset="1" stop-color="rgb(159,194,222)" stop-opacity="1"/></linearGradient><linearGradient x1="34.26673889160156" x2="34.26673889160156" y1="0" y2="24.43518524169922" id="GRAD1732" gradientUnits="userSpaceOnUse"><stop offset="0" stop-color="#bbdefb"/><stop offset="1" stop-color="rgb(159,194,222)" stop-opacity="1"/></linearGradient></svg>