<svg width="2px" height="2px" viewBox="0 0 2 2" xmlns="http://www.w3.org/2000/svg" xmlns:xlink="http://www.w3.org/1999/xlink" style="display: block; letter-spacing: normal; word-spacing: normal; width: 2px; height: 2px;"><rect x="0" y="0" width="2" height="2" fill="white" transform="matrix(1, 0, 0, 1, 0, 0)"/><g clip-path="url(#mainClip1630)"><g class="gojs-diagram" transform="matrix(1, 0, 0, 1, 1, 1)"><g transform="matrix(1, 0, 0, 1, -42.544700622558594, -25.43518524169922)" data-class-name="Group" data-key="Fred"><g transform="matrix(1, 0, 0, 1, 0, 0)"><path stroke="none" fill="url(#GRAD1689)" d="M 0,0 L 84.08940124511719,0 L 84.08940124511719,24.43518524169922 L 0,24.43518524169922 z" transform="matrix(1, 0, 0, 1, 0.5, 0.5)"/><text x="0" y="10.826388931274415" style="font: 400 10pt Source Sans Pro, sans-serif" text-anchor="start" fill="black" transform="matrix(1, 0, 0, 1, 5.5, 5.5)">Fred: Patron</text></g><path stroke="gray" fill="none" stroke-width="1" stroke-linecap="butt" stroke-linejoin="miter" stroke-miterlimit="10" stroke-dasharray="3,3" stroke-dashoffset="0" d="M 0.5,0 L 0.5,230" transform="matrix(1, 0, 0, 1, 42.044700622558594, 25.93518524169922)" data-port-id=""/></g></g><g transform="matrix(1, 0, 0, 1, 1, 1)"/></g><clipPath id="mainClip1630"><rect x="0" y="0" width="2px" height="2px"/></clipPath><linearGradient x1="42.044700622558594" x2="42.044700622558594" y1="0" y2="24.43518524169922" id="GRAD1689" gradientUnits="userSpaceOnUse"><stop offset="0" stop-color="#bbdefb"/><stop offset="1" stop-color="rgb(159,194,222)" stop-opacity="1"/></linearGradient></svg>